<?xml version="1.0" encoding="UTF-8"?>
<svg version="1.1" viewBox="0 0 512 512" xmlns="http://www.w3.org/2000/svg">
<circle cx="256" cy="256" r="255.51" fill="#f11" stroke="#000" stroke-width=".98778" style="paint-order:markers fill stroke"/>
<path d="m297.15 138.87c0.82895 34.046 0.87119 68.106 0.98721 102.16 0.12667 44.441-0.0102 88.883-0.308 133.32-0.0939 14.599-0.25758 29.197-0.49865 43.795l12.787 6.5154c-0.23984-14.767-0.40436-29.534-0.49866-44.303-0.29646-44.545-0.43502-89.091-0.30799-133.64 0.11527-33.718 0.15129-67.444 0.98721-101.15l-13.148-6.6994z" opacity="0" style="paint-order:markers fill stroke"/>
<path d="m271.19 82.441c1.9736 22.198-2.4605 45.11 0 67.254 1.208 10.872 3.3494 21.656 4.339 32.542 0.98334 10.817 0.82316 21.772 2.1695 32.542 2.8803 23.042 8.272 46.244 10.847 69.424 1.8713 16.842 3.7395 33.284 6.5085 49.898 0.71332 4.28-0.85095 8.7622 0 13.017 0.31713 1.5856 1.8524 2.7534 2.1695 4.339 1.3909 6.9545 1.5299 60.884 0 71.593-0.22869 1.6008-1.8524 2.7533-2.1695 4.339-1.3109 6.5544 0.69946 26.733 4.339 30.373 1.696 1.696 3.7742-1.8871 4.339-2.1695 2.6366-1.3183 9.171-0.49302 10.847-2.1695 0.64819-0.64819-0.0698-8.3987 0-8.678 1.9328-7.7312 5.3346-15.647 6.5085-23.864 1.0345-7.2416 3.3141-14.52 4.339-21.695 1.3959-9.7715 1.4554-52.727 0-62.915-1.6868-11.808-3.6954-23.46-6.5085-34.712-0.90689-3.6276 1.648-9.7209 0-13.017-2.4383-4.8766-4.339-13.522-4.339-19.525 0-7.3176-2.9298-12.479-4.339-19.525-1.0971-5.4856-0.58471-6.6778-2.1695-13.017-0.37692-1.5077-1.8041-16.625-2.1695-17.356-0.28242-0.56482-3.8654-2.643-2.1695-4.339 0.18177-0.18177 5.9981 3.4457 8.678 4.339 7.9193 2.6398 19.553 4.339 28.203 4.339 1.6987 0 9.7649 1.0825 10.847 0 4.0297-4.0297-3.5054-23.116-4.339-26.034-2.9527-10.335-8.8707-19.782-15.186-28.203-3.6864-4.9152-4.9916-3.7628-8.678-8.678-2.1951-2.9268-3.9385-8.2775-6.5085-10.847-1.1434-1.1434-3.1956-1.0261-4.339-2.1695-1.2712-1.2712-5.2592-6.8041-6.5085-8.678-9.1284-13.693-14.71-29.657-23.864-43.39-3.133-4.6995-7.3191-8.6065-10.847-13.017z" fill="#fefefe" stroke-opacity="0" style="paint-order:markers fill stroke"/>
<path d="m123.66 104.14c-1.8295 11.491-4.1212 25.171-2.1695 36.881 0.32711 1.9627 17.517 27.199 19.525 28.203 0.64682 0.32341 1.6581-0.51136 2.1695 0 0.51135 0.51135-0.51135 1.6581 0 2.1695 2.7938 2.7938 7.6796 0.58557 10.847 2.1695 0.91474 0.45737 1.2548 1.7121 2.1695 2.1695 1.0789 0.53944 12.279 0.73841 13.017 0 0.72316-0.72316 1.4463-2.8926 2.1695-2.1695 2.6556 2.6556-0.64814 14.988 0 19.525 1.1512 8.0585 3.1878 15.806 4.339 23.864 0.90181 6.3126-1.2492 13.279 0 19.525 0.31713 1.5856 1.8524 2.7533 2.1695 4.339 1.6563 8.2815-2.0452 17.853 0 26.034 0.39219 1.5688 1.8524 2.7533 2.1695 4.339 1.2516 6.2582-1.2516 13.267 0 19.525 3.8304 19.152 4.339 38.769 4.339 58.576 0 16.032-0.64682-8.2199 2.1695 8.678 1.29 7.7398-1.29 16.125 0 23.864 0.26584 1.595 1.8524 2.7533 2.1695 4.339 2.1318 10.659 0 23.779 0 34.712 0 2.4515-1.5937 13.593 0 15.186 0.51136 0.51135 1.6581-0.51136 2.1695 0 1.4317 1.4317 3.0649 6.9562 6.5085 8.678 1.0789 0.53944 12.279 0.73841 13.017 0 3.0147-3.0147 3.6188-17.374 4.339-21.695 3.6023-21.614 0.97604 11.717 4.339-15.186 1.3436-10.749 1.7998-60.794 0-71.593-0.26584-1.595-1.8524-2.7533-2.1695-4.339-0.85094-4.2547 0.71333-8.737 0-13.017-0.37595-2.2557-1.721-4.266-2.1695-6.5085-0.43438-2.1719 1.647-11.37 0-13.017-2.3579-2.3579-2.1695 1.4861-2.1695-6.5085 0-11.766-1.5504-23.558-4.339-34.712-1.5098-6.0392 1.961-13.642 0-19.525-0.32341-0.97023-1.7121-1.2548-2.1695-2.1695-1.2684-2.5368 0.35474-10.889 0-13.017-2.6269-15.761-2.1695 0.76248-2.1695-10.847v-19.525c0-2.1695-2.1695-6.5085 0-6.5085 1.0227 0 1.1773 1.9214 2.1695 2.1695 2.9163 0.72908 16.411 1.5574 19.525 0 10.94-5.47 5.8485-38.201 2.1695-45.559-1.1571-2.3141 1.1571-6.3638 0-8.678-0.45737-0.91473-1.8461-1.1993-2.1695-2.1695-1.1856-3.5568 1.6695-9.678 0-13.017-0.32341-0.64681-1.6581 0.51136-2.1695 0-1.5486-1.5486 0.73262-8.6496 0-10.847-1.7997-5.399-2.7222-9.7834-4.339-13.017-1.4763-2.9525-3.0783-7.4173-4.339-8.678-6.2881-6.2881-4.339 15.448-4.339 17.356 0 3.0004-0.47101 17.827-2.1695 19.525-0.51136 0.51135-1.6581-0.51136-2.1695 0-0.51135 0.51135 0.32341 1.5227 0 2.1695-2.0143 4.0285-11.247 18.241-13.017 17.356-4.5255-2.2627-4.2494-36.792-8.678-41.22-0.51135-0.51135-1.6581 0.51136-2.1695 0-0.51136-0.51135 0.51135-1.6581 0-2.1695-1.2894-1.2894-2.5515-1.2758-4.339-2.1695-9.0289-4.5145 2.3193 0.14977-2.1695-4.339-0.83891-0.83892-9.0388-3.9782-10.847-2.1695-2.2468 2.2468 1.4879 7.3147 2.1695 8.678 1.8033 3.6066 0 35.99 0 43.39 0 0.89332 0.57427 5.9342 0 6.5085-4.3384 4.3384-15.484-4.9335-17.356-8.678-1.1797-2.3595-1.2945-12.142-2.1695-13.017-0.51135-0.51135-1.6581 0.51135-2.1695 0-1.8079-1.8079 1.8079-9.0396 0-10.847-0.51135-0.51135-1.6581 0.51136-2.1695 0-1.0227-1.0227 0.64682-3.0454 0-4.339-1.2636-2.5272-3.0754-3.9813-4.339-6.5085-1.5324-3.0649-0.0701-4.409-2.1695-6.5085-3.2341-3.2341-8.7704 2.6404-13.017 4.339z" fill="#fefefe" stroke-opacity="0" style="paint-order:markers fill stroke"/>
</svg>
