<?xml version="1.0" encoding="UTF-8"?>
<svg version="1.1" viewBox="0 0 512 512" xmlns="http://www.w3.org/2000/svg">
<circle cx="256" cy="256" r="255.51" fill="#fdf050" stroke="#000" stroke-width=".98778" style="paint-order:markers fill stroke"/>
<path d="m299.3 190.76c0.65853 28.463 0.69209 56.938 0.78425 85.408 0.10064 37.154-8e-3 74.308-0.24468 111.46-0.0747 12.205-0.20462 24.41-0.39613 36.613l10.158 5.447c-0.19054-12.345-0.32124-24.692-0.39615-37.038-0.23552-37.241-0.34559-74.482-0.24468-111.72 0.0915-28.19 0.12019-56.385 0.78426-84.567l-10.445-5.6009z" opacity="0" stroke-width=".81495" style="paint-order:markers fill stroke"/>
<rect x="128.73" y="192.55" width="255.07" height="233.97" fill="#fff" stroke-opacity="0" style="paint-order:markers fill stroke"/>
<path d="m132.18 196.18h-27.575c-16.192 0-32.155-2.0136-48.257-3.6275-6.3193-0.60461-12.639-1.2092-18.958-1.8138-1.149-0.6046-2.2007-1.4859-3.4469-1.8138-0.22188-0.0583-6.3789 0.54191-6.8938 0-2.4747-2.6044 3.1818-1.6742 3.4469-1.8138 11.14-5.862 24.409-11.937 36.193-18.138 8.7916-4.6261 18.7-6.6371 27.575-10.883 3.0495-1.4588 5.6211-3.8647 8.6173-5.4413 5.5342-2.9121 11.58-4.6104 17.235-7.255 19.6-9.1676 39.429-18.934 58.597-29.02 5.515-2.902 9.996-7.9805 15.511-10.883 5.6185-2.9565 11.901-5.3271 17.235-9.0688 3.4738-2.4372 6.5362-5.2531 10.341-7.255 7.0389-3.7039 37.464-25.105 39.639-23.579 1.352 0.94855 2.0536 2.7477 3.4469 3.6275 7.9354 5.0107 17.84 7.4263 25.852 12.696 14.33 9.4255 28.216 20.484 43.086 29.02 11.612 6.6656 24.631 11.378 36.193 18.138 2.5109 1.4681 4.269 4.2135 6.8938 5.4413 2.6768 1.252 5.8745 0.73132 8.6173 1.8138 3.4442 1.3592 8.62 5.8958 12.064 7.255 8.0844 3.1905 16.026 6.2266 24.128 9.0688 6.2466 2.1913 11.395 7.8097 17.235 10.883 1.6249 0.85502 3.6126 0.83012 5.1704 1.8138 16.03 10.122-12.079-3.6351 8.6172 7.255 5.2645 2.7702 10.477 5.5371 15.511 9.0688 3.4142-0.18105 0.8151 2.6716 1.7234 3.6275 0.40621 0.42752 1.3172-0.4275 1.7235 0 0.40621 0.42752-0.40624 1.3863 0 1.8138 0.40621 0.42752 1.149 0 1.7234 0 0.57449 1.2092 0.8151 2.6716 1.7234 3.6275 1.2846 1.3519 3.8858 0.46187 5.1704 1.8138 0.40623 0.42748-0.40621 1.3862 0 1.8137 0.40623 0.42751 1.7235 0.60458 1.7235 0s-1.149 0-1.7235 0c-1.7234 0-3.4574-0.20029-5.1704 0-8.2402 0.96356-19.547 0.81128-27.575 3.6275-8.774 3.0779-16.704 6.662-25.852 9.0688-6.7644 1.7797-16.169 3.2538-22.405 5.4413-0.77074 0.27037-0.99678 1.4314-1.7234 1.8138-3.5876 1.8878-16.05 3.6275-20.681 3.6275" fill="#fff" stroke-opacity="0" style="paint-order:markers fill stroke"/>
<path d="m180.07 429.56c0.40023-25.358-0.63333-50.585-2.1695-75.932-1.3193-21.769-5.0563-43.302-6.5085-65.085-0.41556-6.2334-2.321-13.017-2.1695-13.017 1.0227 0 1.2548 1.7121 2.1695 2.1695 5.9972 2.9986 15.011 5.0232 21.695 6.5085 13.713 3.0474 31.544 4.9246 43.39 10.847 3.8986 1.9493 14.438-2.918 17.356 0 1.0508 1.0508 0 64.039 0 69.424 0 16.825 2.4932 33.286 4.339 49.898 0.47916 4.3124-1.0524 8.8075 0 13.017 0.39219 1.5688 1.6581 2.8049 2.1695 4.339 0.45737 1.3721-1.4463 4.339 0 4.339 2.8988 0-4.679-4.339-6.5085-4.339h-26.034c-6.3054 0-15.829-1.9553-21.695 0-0.97022 0.32341-1.2548 1.7121-2.1695 2.1695-2.0822 1.0411-6.5945-0.69449-8.678 0-2.1168 0.70561-1.5456 3.5662-4.339 2.1695-3.7716-1.8858-7.2316-4.339-10.847-6.5085z" fill="#fdf050" stroke-opacity="0" style="paint-order:markers fill stroke"/>
<path d="m279.86 210.44c0.2873 23.216-1.6058 46.772 2.1695 69.424 0.59389 3.5634 0.35413 24.219 2.1695 26.034 0.57428 0.57427 5.6152 0 6.5085 0 6.6311 0 15.296-1.5997 21.695 0 5.102 1.2755 7.4827 2.1695 13.017 2.1695 4.2103 0 23.16 2.8739 23.864 2.1695 1.6959-1.696-1.8871-3.7742-2.1695-4.339-1.4881-2.9761-2.1695-34.01-2.1695-39.051 0-4.7179 0.54168-55.865 0-56.407-0.84531-0.84532-7.354 0-8.678 0-6.29 0-30.203-2.2542-34.712 0-3.1323 1.5661-5.5457 2.7728-8.678 4.339-4.0908 2.0454-8.7704-2.6404-13.017-4.339z" fill="#fdf050" stroke-opacity="0" style="paint-order:markers fill stroke"/>
</svg>
