<?xml version="1.0" encoding="UTF-8"?>
<svg version="1.1" viewBox="0 0 512 512" xmlns="http://www.w3.org/2000/svg">
<g stroke-opacity="0">
<circle cx="256" cy="256" r="255.36" fill="#fff72e" style="paint-order:markers fill stroke"/>
<path d="m130.17 112.81c4.339 0 8.7115 0.53819 13.017 0 4.1511-0.51889 6.8864-5.1881 10.847-6.5085 2.0582-0.68605 4.3811 0.42547 6.5085 0 7.5946-1.5189 14.404-4.6857 21.695-6.5085 6.115-1.5288 13.341 1.2368 19.525 0 1.5856-0.31713 2.7702-1.7773 4.339-2.1695 19.529-4.8823 60.599 7.1827 78.102 13.017 2.4736 0.82454 4.0349 3.5144 6.5085 4.339 1.3721 0.45737 2.9669-0.45737 4.339 0 7.8976 2.6325 14.877 10.641 21.695 15.186 4.6696 3.113 9.722 5.9049 13.017 10.847 4.2877 6.4316 6.8547 16.571 8.678 23.864 1.7474 6.9896 1.5672 21.935 0 28.203-2.3205 9.2821-11.801 14.289-17.356 21.695-15.153 20.204-33.039 37.936-54.237 52.068-4.339 2.8927-8.2238 6.6238-13.017 8.678-9.7315 4.1706-6.7428 0.11717-15.186 4.339-2.3321 1.1661-4.0876 3.3706-6.5085 4.339-4.911 1.9644-10.847 1.6339-10.847 2.1695 0 1.4463 3.3163-1.0227 4.339 0 0.51135 0.51135 0 1.4463 0 2.1695 0.72316 0.72316 1.3709 1.5306 2.1695 2.1695 2.8235 2.2588 6.1212 3.9517 8.678 6.5085 8.5393 8.5393 0.0903 4.4067 8.678 10.847 8.892 6.669 19.173 14.716 26.034 23.864 3.4478 4.597 5.9736 9.3615 10.847 13.017 1.2936 0.97022 2.8927 1.4463 4.339 2.1695 2.1695 1.4463 4.4724 2.7102 6.5085 4.339 8.9196 7.1357 16.938 14.873 26.034 21.695 4.159 3.1192 8.6735 5.7823 13.017 8.678 2.3933 1.5955 3.9455 5.227 6.5085 6.5085 0.64682 0.32341 1.6581-0.51136 2.1695 0 0.51136 0.51135-0.51135 1.6581 0 2.1695 0.51136 0.51135 1.6581-0.51135 2.1695 0 0.51136 0.51135-0.51135 1.6581 0 2.1695 0.51136 0.51136 1.5678-0.40114 2.1695 0 6.4407 4.2938 2.8754 5.0449 8.678 10.847 1.8437 1.8437 4.5054 2.6698 6.5085 4.339 6.5139 5.4282 14.892 11.142 13.017 13.017-1.3907 1.3907-14.069 0-15.186 0-3.1815 0-53.748 0.48943-54.237 0-4.8241-4.8241-7.0631-11.679-10.847-17.356-2.5686-3.8528-6.2956-6.8768-8.678-10.847-1.1766-1.961-0.99292-4.5475-2.1695-6.5085-1.9283-3.2139-8.564-12.332-10.847-15.186-15.605-19.506 5.4932 7.6627-8.678-6.5085-1.1434-1.1434-1.0261-3.1956-2.1695-4.339-3.7169-3.7169-9.0298-6.8603-13.017-10.847-5.5172-5.5172-12.608-16.067-19.525-19.525-1.3148-0.65742-5.5994-1.2604-6.5085-2.1695-0.51136-0.51136 0.51135-1.6581 0-2.1695-0.51136-0.51135-1.6581 0.51136-2.1695 0-0.51136-0.51135 0.51135-1.6581 0-2.1695-1.1434-1.1434-3.1956-1.0261-4.339-2.1695-1.8437-1.8437-2.4953-4.6648-4.339-6.5085-3.6874-3.6874-8.9449-5.4203-13.017-8.678-2.3958-1.9166-3.7643-5.1364-6.5085-6.5085-0.64682-0.32341-1.6581 0.51135-2.1695 0-0.51135-0.51136 0.51136-1.6581 0-2.1695-0.51135-0.51135-1.6581 0.51136-2.1695 0-0.51135-0.51135 0.40114-1.5678 0-2.1695-2.2692-3.4038-5.7853-5.7853-8.678-8.678-3.3638-3.3638-7.4164-9.3088-4.339-10.847 1.2936-0.64682 2.9961 0.53715 4.339 0 7.57-3.028 14.804-9.5713 21.695-13.017 1.8063-0.90315 7.3018 1.3761 8.678 0 0.51135-0.51135-0.64682-1.8461 0-2.1695 1.2936-0.64682 2.9669 0.45737 4.339 0 0.53185-0.17728 10.766-4.2983 10.847-4.339 3.4712-1.7356 5.2068-6.9424 8.678-8.678 0.64681-0.32341 1.6581 0.51135 2.1695 0 0.51135-0.51135-0.32341-1.5227 0-2.1695 1.2815-2.563 4.9129-4.1152 6.5085-6.5085 4.2673-6.4009 6.927-12.522 8.678-19.525 1.0107-4.0428 5.3562-7.3907 6.5085-10.847 0.45737-1.3721-0.64682-3.0454 0-4.339 0.32341-0.64682 1.6581 0.51135 2.1695 0 1.0029-1.0029-0.65494-5.1986 0-6.5085 0.45737-0.91473 1.8461-1.1993 2.1695-2.1695 0.85217-2.5565 0.82884-30.885 0-32.542-0.91474-1.8295-3.2044-2.6371-4.339-4.339-1.2685-1.9028-0.55245-4.8914-2.1695-6.5085-0.47543-0.47543-9.6177-5.8936-10.847-6.5085-9.0289-4.5144 2.3193 0.14977-2.1695-4.339-1.0227-1.0227-3.0454 0.64682-4.339 0-3.8513-1.9256-6.9962-4.5828-10.847-6.5085-1.7356-0.8678-4.7729 0.8678-6.5085 0-0.91474-0.45737-1.2548-1.7121-2.1695-2.1695-1.3099-0.65494-5.5056 1.0029-6.5085 0-0.51135-0.51136 0.51135-1.6581 0-2.1695-0.57428-0.57428-5.6152 0-6.5085 0-8.09 0-20.752-2.4837-28.203 0-12.349 4.1162-22.684 10.783-32.542 17.356-4.8825 3.255-8.224 7.4164-8.678 6.5085-3.12-6.2399 2.1342-22.903 0-30.373-1.0699-3.7445-2.8927-7.2316-4.339-10.847z" fill="#fff" style="paint-order:markers fill stroke"/>
<path d="m112.81 97.627v52.068c0 5.1208-1.1922 6.5085 4.339 6.5085 0.72317 0 1.6581 0.51135 2.1695 0 0.51135-0.51136-0.51136-1.6581 0-2.1695 2.0454-2.0454 5.7853 0 8.678 0 13.379 0 54.203 2.7205 65.085 0 12.852-3.2129 59.182-4.238 71.593-2.1695 36.236 6.0393 81.836 2.1695 119.32 2.1695h19.525c2.1695 0 6.5085 2.1695 6.5085 0 0-1.7427-5.6905-4.8725-6.5085-6.5085-1.9454-3.8908-0.60146-40.254-2.1695-43.39-0.34899-0.69799-9.7038 0-10.847 0h-41.22-69.424c-8.3248 0-25.307 2.4117-32.542 0-0.97023-0.32341-1.1993-1.8461-2.1695-2.1695-3.9051-1.3017-9.1119 1.3017-13.017 0-0.97023-0.32341-1.1993-1.8461-2.1695-2.1695-2.7442-0.91474-5.7853 0-8.678 0-31.273 0-78.724 3.7807-108.47-2.1695z" fill="#fff" style="paint-order:markers fill stroke"/>
<path d="m117.15 193.08c33.013-2.5201 66.861 3.2936 99.797 0 26.049-2.6049 51.747-4.339 78.102-4.339h80.271c6.7986 0 11.122 0.0914 17.356 2.1695 0.64654 0.21551 8.678-0.16513 8.678 0 0 1.0227-1.8461 1.1993-2.1695 2.1695-0.94289 2.8287-1.4463 5.7853-2.1695 8.678-0.85959 3.4384 0 9.4638 0 13.017 0 5.6907-2.1695 9.6849-2.1695 15.186 0 2.6591 1.5828 9.2646 0 10.847-0.37654 0.37654-52.774-6.5085-56.407-6.5085-22.34 0 9.8274 0.68605-13.017-2.1695-8.751-1.0939-21.595-0.87777-30.373 0-13.056 1.3056-26.14 4.6641-39.051 6.5085-4.9361 0.70516-57.708 1.7358-62.915 0-0.97023-0.32341-1.2548-1.7121-2.1695-2.1695-5.1484-2.5742-36.917 0-43.39 0-1.7136 0-32.329 0.21333-32.542 0-0.0687-0.0688 2.1695-38.629 2.1695-43.39z" fill="#fff" style="paint-order:markers fill stroke"/>
</g>
</svg>
