<?xml version="1.0" encoding="UTF-8"?>
<svg version="1.1" viewBox="0 0 512 512" xmlns="http://www.w3.org/2000/svg">
<g>
<circle cx="256" cy="256" r="255.29" fill="#ee77e6" stroke="#000" stroke-width="1.4178" style="paint-order:markers fill stroke"/>
<ellipse cx="269.02" cy="274.44" rx="119.32" ry="120.41" fill="#fff" stroke-opacity="0" style="paint-order:markers fill stroke"/>
<path d="m227.35 207.27c6.9707-3.7009 14.437-6.6601 21.698-9.9256 3.9812-1.8061 7.8717-3.5347 12.413-4.0096 6.8218-0.32992 13.664-0.25606 20.495-0.23447 6.2172-0.34203 11.994 1.0216 17.694 2.8572-27.824-12.046-14.116-7.7512-9.8543-3.8209 1.5369 1.4175 1.9952 2.1191 3.3432 3.7711 2.8858 4.1503 5.6661 8.3453 7.8572 12.777 0.9991 3.3135 1.974 6.6452 2.9238 9.9758 0.99876 3.1223 1.0076 6.3642 1.0922 9.5689 0.34986 4.4174 0.0122 6.1238-2.4415 10.068-1.4533 2.8806-3.745 4.9976-6.5914 6.9511-4.1145 2.1805-8.2436 4.3056-12.47 6.3461-4.6241 1.695-8.737 4.2684-13.411 5.8622-3.9992 0.71474-8.1307 0.8903-12.202 1.4494-4.3751 0.65643-8.7863 1.1166-13.228 1.294-4.7029 0.13275-9.4098 0.12937-14.115 0.0978-10.559-0.0641 8.9163-2.4549 12.985 9.2059 1.5536 4.4527-9.8555-4.4999-14.783-6.7499 5.6118 6.0872 9 13.508 13.036 20.365 5.2528 9.208 11.368 18.052 17.295 26.97 2.979 4.506 5.9172 9.0132 9.6521 13.133 2.3289 2.5267 3.9802 5.3904 6.0266 8.0661 2.2256 2.5977 3.9005 5.4644 6.0601 8.0932l16.693 5.9419c-2.38-2.5441-4.0044-5.4196-6.1946-8.0764-2.2198-2.6165-3.7004-5.5434-5.8367-8.1352-4.058-3.9883-7.1206-8.4787-10.13-13.035-5.9782-8.9226-12.24-17.731-17.504-26.964-4.0469-6.927-7.7109-14.006-12.162-20.764-5.5436-2.66-10.551-9.6743-16.631-7.98-5.9099 1.6471 10.752 9.7742 16.207 8.713 4.7194-0.0332 9.4416-0.023 14.158-0.17903 4.4538-0.24669 8.8609-0.82276 13.254-1.4619 4.1978-0.52638 8.6205-0.4301 12.596-1.7172 4.5489-1.8637 8.7548-4.274 13.358-6.0655 4.3442-2.062 8.6296-4.1882 12.809-6.4693 3.002-2.0761 5.2234-4.5556 6.8209-7.5224 2.7335-4.2489 3.4016-5.9006 2.8987-10.704-0.0484-3.276 0.1149-6.6302-0.85204-9.8306-0.99084-3.393-2.19-6.7332-2.8122-10.188-2.2495-4.5111-5.0456-8.7753-7.8489-13.068-6.0672-8.2383-12.053-10.336-24.289-15.107-5.7971-1.6887-11.734-2.6459-17.931-2.3448-6.9467-6e-3 -13.925-0.18088-20.85 0.32604-4.5876 0.74445-8.5304 2.6657-12.586 4.5236-7.295 3.3049-14.692 6.4558-21.911 9.8796 0 0 15.267 8.1163 15.267 8.1163z" fill="#ee77e6" stroke="#ee77e6" stroke-width="1.1021" style="paint-order:markers fill stroke"/>
<path d="m209.82 210.07c6.238 0.36793 12.424-1.7196 18.612-3.2646 7.8326-1.1335 15.61-3.5431 23.433-5.0052 7.704-1.3739 15.431-1.668 23.154-1.8444 6.9881-0.11706 13.976-0.0943 20.964-0.0348 3.8017-0.0138 7.6029 0.16776 11.405 0.16684 4.2151-0.0443 8.43-0.10716 12.645-0.0772 3.1228-1e-3 6.2454 0.0899 9.3682 0.0885 1.9454-0.0161 3.8908-0.0355 5.8362-0.0251l-12.003-20.258c-1.9554 0.0115-3.9107-9e-3 -5.8661-0.0251-3.0878-1e-3 -6.1754 0.0903-9.2631 0.089-4.2462 0.0304-8.4923-0.0325-12.738-0.083-3.7461-0.0115-7.4919 0.14127-11.238 0.11269-6.9851 0.0281-13.971-0.0263-20.955 0.10324-7.7144 0.2431-15.433 0.71958-23.125 2.1854-7.8696 1.5265-15.712 3.6978-23.594 4.8613-6.1881 1.6682-12.388 3.5364-18.633 2.7584 0 0 12 20.252 12 20.252z" fill="#ee77e6" stroke="#ee77e6" stroke-width="1.512" style="paint-order:markers fill stroke"/>
<path d="m209.78 246.99c5.2524-0.0439 10.491 0.16475 15.727-0.794 9.2511-2.2599 18.582-2.2325 27.838-4.1902 5.9706-1.4868 11.935-3.1157 17.935-3.9406 8.2197-0.67944 16.449-0.63155 24.674-0.65819 8.6349-0.0359 17.269 0.0764 25.904 0.19727 3.9646 0.1517 7.9293 0.0802 11.894 0.0312 3.9854-0.0554 7.971-0.0464 11.956-6e-3l-11.918-18.649c-3.9883 0.0404-7.9766 0.0486-11.965-6e-3 -3.9553-0.0494-7.9104-0.12582-11.866 0.0107-8.5648 0.0941-17.13 0.17032-25.694 0.13608-8.3376-4e-3 -16.683-0.26925-25.015 0.40654-5.9386 1.0411-11.837 2.8891-17.758 4.2944-9.2727 1.7726-18.595 2.1798-27.867 4.0491-5.2844 0.58645-10.572 0.35668-15.863 0.31649l12.017 18.803z" fill="#ee77e6" stroke="#ee77e6" stroke-width="1.458" style="paint-order:markers fill stroke"/>
<circle cx="139.93" cy="116.07" r="42" fill="#fff" stroke="#ee77e6" style="paint-order:markers fill stroke"/>
<circle cx="358.92" cy="105.09" r="33.502" fill="#fff" stroke="#ee77e6" stroke-width=".99628" style="paint-order:markers fill stroke"/>
<ellipse cx="101.57" cy="344.55" rx="49.493" ry="49.493" fill="#fff" stroke="#ee77e6" stroke-width="1.0139" style="paint-order:markers fill stroke"/>
<circle cx="362.94" cy="456.23" r="24.509" fill="#fff" stroke="#ee77e6" stroke-width=".98235" style="paint-order:markers fill stroke"/>
<circle cx="444.86" cy="293" r="37.065" fill="#fff" stroke="#ee77e6" stroke-width=".87071" style="paint-order:markers fill stroke"/>
<path d="m141.85 132.6c5.4831 3.697 10.807 7.6765 15.852 11.956 1.8513 1.8779 4.0634 3.3655 5.8864 5.2657 2.6431 3.3231 5.0052 6.8913 7.4411 10.37 5.5449 7.8759 10.742 15.987 16.11 23.983l13.422 5.8556c-5.498-7.9374-10.76-16.031-16.181-24.02-2.3273-3.4473-4.6926-6.8885-6.9352-10.352-1.766-2.1384-4.0227-3.6021-6.0064-5.5365-4.9994-4.312-10.339-8.2005-15.635-12.138l-13.954-5.3832z" fill="#fff" stroke-opacity="0" style="paint-order:markers fill stroke"/>
<path d="m142.25 339.95c5.4682-1.5306 10.781-3.5406 16.305-4.8796 2.5231-0.49433 4.9943-1.6756 7.1462-3.0891 2.0784-1.2182 4.056-2.6131 6.1651-3.8119 1.6694-1.1142 3.2487-2.3324 4.9512-3.4135l-12.61-8.0935c-1.6577 1.1058-3.2481 2.3032-4.9526 3.3366-2.0588 1.2686-4.0333 2.6774-6.1526 3.8383-2.1563 1.1881-4.3411 2.3723-6.7978 2.7951-5.5181 1.499-10.865 3.5574-16.419 4.9283l12.365 8.3894z" fill="#fff" stroke-opacity="0" style="paint-order:markers fill stroke"/>
<path d="m361.74 445.57c-4.0296-11.404-9.4556-22.249-15.005-32.974-2.9256-6.3187-6.8226-12.093-10.455-18.01-4.0956-7.4117-8.4316-14.683-12.667-22.015-1.46-2.9313-3.2188-5.6915-5.2042-8.2907 0 0-13.801-5.8811-13.801-5.8811 2.1589 2.4854 4.0936 5.1793 5.4995 8.1688 4.3375 7.3091 8.7924 14.554 12.755 22.078 3.5648 5.9735 7.4761 11.742 10.584 17.974 5.6687 10.516 11.218 21.219 14.847 32.636 0 0 13.445 6.3144 13.445 6.3144z" fill="#fff" stroke-opacity="0" style="paint-order:markers fill stroke"/>
<path d="m411.11 281.98c-6.8432 0.084-13.687 0.071-20.531 0.0733-6.7082 0.01-13.416-0.0196-20.124-0.0373-3.1031-0.0277-6.2064-0.0358-9.3095-0.0509l12.137 8.818c3.0565-0.0151 6.1129-0.0231 9.1694-0.0509 6.6739-0.0178 13.348-0.047 20.022-0.0373 6.9108 2e-3 13.822-0.01 20.732 0.0733l-12.096-8.7881z" fill="#fff" stroke-opacity="0" style="paint-order:markers fill stroke"/>
<path d="m346.57 121.31c-4.0316 9.2159-9.1275 17.921-14.027 26.695-3.5164 7.0779-7.2307 14.053-10.82 21.096-2.8002 5.1598-1.4439 2.6178-4.0727 7.6241l12.741 7.28c2.576-5.0192 1.2332-2.4666 4.0354-7.6538 3.6201-7.0154 7.5041-13.891 10.81-21.062 4.7152-8.9424 9.724-17.721 14.402-26.681 0 0-13.069-7.2979-13.069-7.2979z" fill="#fff" stroke-opacity="0" style="paint-order:markers fill stroke"/>
</g>
</svg>
