<?xml version="1.0" encoding="UTF-8"?>
<svg version="1.1" viewBox="0 0 512 512" xmlns="http://www.w3.org/2000/svg">
<circle cx="256" cy="256" r="255.48" fill="#85ff68" stroke-opacity="0" style="paint-order:markers fill stroke"/>
<path transform="matrix(.58867 0 0 .58469 165.09 181.08)" d="m271.19 292.88-237.2 1.0509-74.298-225.26 191.28-140.27 192.51 138.57z" fill="#fff" stroke-opacity="0" style="paint-order:markers fill stroke"/>
<path transform="matrix(-.22265 .54494 -.54125 -.22115 68.548 98.723)" d="m20.757 23.885a433.86 436.82 4.8056e-7 0 0 248-10.711l-117.78-84.779-130.21 95.49z" fill="#fff" stroke-opacity="0" style="paint-order:markers fill stroke"/>
<path transform="matrix(-.18514 .5588 -.55502 -.18389 357.43 -105.61)" d="m225.45 107.54a433.86 436.82 1.6237e-5 0 0 65.347 124.06l52.686-164.63-139.92-100.71a433.86 436.82 1.6237e-5 0 0 21.888 141.29z" fill="#fff" stroke-opacity="0" style="paint-order:markers fill stroke"/>
<path transform="matrix(-.16911 .56386 -.56004 -.16797 650.66 91.161)" d="m121.48 293.54 149.7-0.66338 44.477-138.98a433.86 436.82 4.79e-5 0 0-194.18 139.64z" fill="#fff" stroke-opacity="0" style="paint-order:markers fill stroke"/>
<path transform="matrix(-.16911 .56386 -.56004 -.16797 546.52 425.26)" d="m-17.265 138.54 51.253 155.39 175.18-0.77509a433.86 436.82 4.79e-5 0 0-226.44-154.62z" fill="#fff" stroke-opacity="0" style="paint-order:markers fill stroke"/>
<path transform="matrix(-.16911 .56386 -.56004 -.16797 173.37 444.79)" d="m-40.31 68.669 46.268 140.28a433.86 436.82 4.79e-5 0 0 78.957-232.11l-125.22 91.831z" fill="#fff" stroke-opacity="0" style="paint-order:markers fill stroke"/>
<path d="m148.49 420.93c6.974-11.528 14.961-22.435 22.632-33.511 5.7539-8.3112 12.173-16.124 17.842-24.493 1.6471-2.7117 3.0402-5.5703 4.6324-8.3244 1.1156-1.8407 2.2773-3.6548 3.5168-5.4148 0.0753 0.024 0.1507 0.0479 0.22604 0.0719l-12.623-8.2259c-0.20223 0.17845-0.40446 0.35689-0.60669 0.53534-1.1602 1.8442-2.2989 3.7018-3.4232 5.5681-1.6165 2.7189-3.0935 5.4963-4.5497 8.2952-5.3099 8.5684-11.603 16.45-17.275 24.775-7.6818 11.111-15.67 22-23.242 33.182 0 0 12.871 7.5418 12.871 7.5418z" fill="#fff" stroke-opacity="0" style="paint-order:markers fill stroke"/>
<path d="m67.143 200.9c12.756 4.3395 25.122 9.8014 37.585 14.919 9.3517 3.8377 18.359 8.4316 27.75 12.174 3.0019 1.0272 6.0927 1.775 9.1242 2.7394 2.0371 0.69492 4.0582 1.4405 6.043 2.2738-7e-3 0.0787-0.0145 0.15747-0.0218 0.2362l5.3274-14.094c-0.21767-0.15925-0.43533-0.31851-0.653-0.47777-2.0501-0.73771-4.1087-1.4515-6.1727-2.1494-3.0023-0.9958-6.0318-1.8429-9.078-2.6649-9.5078-3.3488-18.555-7.8057-27.903-11.56-12.5-5.1204-24.849-10.587-37.394-15.586l-4.6062 14.189z" fill="#fff" stroke-opacity="0" style="paint-order:markers fill stroke"/>
<path d="m246.74 67.551c1.6762 13.369 2.1726 26.878 3.021 40.325 0.63876 10.088 0.44683 20.198 1.1884 30.279 0.3891 3.1488 1.0684 6.2554 1.5269 9.4034 0.26597 2.1358 0.47941 4.2795 0.59813 6.4289-0.0738 0.0281-0.14795 0.0558-0.22195 0.0837l15.004-1.373c0.048-0.2654 0.0961-0.53079 0.14407-0.79619-0.23318-2.1662-0.49158-4.3298-0.76667-6.4911-0.41755-3.1355-0.98073-6.2303-1.5737-9.3292-1.1466-10.015-1.0955-20.1-1.8079-30.149-0.86206-13.48-1.3464-26.977-2.3384-40.445l-14.774 2.0631z" fill="#fff" stroke-opacity="0" style="paint-order:markers fill stroke"/>
<path d="m443.4 187.46c-12.624 4.7083-25.657 8.3008-38.547 12.221-9.6704 2.9436-19.553 5.0838-29.193 8.1259-2.9747 1.1034-5.8415 2.4795-8.7994 3.6503-2.0173 0.75044-4.0542 1.4516-6.1186 2.0618-0.0443-0.0653-0.0883-0.13113-0.13253-0.19672l4.7896 14.285c0.26932-0.0144 0.53866-0.0286 0.80797-0.0431 2.0544-0.72553 4.1004-1.475 6.1403-2.2402 2.9552-1.128 5.8373-2.3884 8.7165-3.6788 9.482-3.421 19.308-5.6926 28.923-8.6987 12.92-3.9417 25.943-7.5195 38.821-11.585l-5.4083-13.903z" fill="#fff" stroke-opacity="0" style="paint-order:markers fill stroke"/>
<path d="m310.51 351.87c10.029 8.9979 19.258 18.875 28.713 28.474 7.095 7.2003 13.576 14.961 20.744 22.089 2.3578 2.123 4.9071 4.0239 7.3168 6.1008 1.6008 1.4387 3.1671 2.9177 4.6656 4.4632-0.0376 0.0695-0.0752 0.13916-0.11271 0.20871l10.432-10.872c-0.13769-0.23192-0.27537-0.46382-0.41306-0.69574-1.596-1.4832-3.2093-2.9477-4.8337-4.3997-2.3706-2.0943-4.8244-4.0625-7.3035-6.0142-7.4303-6.8119-14.002-14.462-21.127-21.584-9.4869-9.6156-18.699-19.491-28.276-29.012l-9.8056 11.242z" fill="#fff" stroke-opacity="0" style="paint-order:markers fill stroke"/>
<circle cx="256" cy="256" r="255.4" fill-opacity="0" stroke="#000" stroke-width="1.1933" style="paint-order:markers fill stroke"/>
</svg>
