<?xml version="1.0" encoding="UTF-8"?>
<svg version="1.1" viewBox="0 0 512 512" xmlns="http://www.w3.org/2000/svg">
<circle cx="256" cy="256" r="255.51" fill="#21cbff" stroke="#11d4f4" stroke-width=".98778" style="paint-order:markers fill stroke"/>
<path d="m297.15 138.87c0.82895 34.046 0.87119 68.106 0.98721 102.16 0.12667 44.441-0.0102 88.883-0.308 133.32-0.0939 14.599-0.25758 29.197-0.49865 43.795l12.787 6.5154c-0.23984-14.767-0.40436-29.534-0.49866-44.303-0.29646-44.545-0.43502-89.091-0.30799-133.64 0.11527-33.718 0.15129-67.444 0.98721-101.15l-13.148-6.6994z" opacity="0" style="paint-order:markers fill stroke"/>
<path d="m119.32 175.73v75.932c0 16.603-2.6916 38.088 0 54.237 2.1702 13.021 4.3397 26.038 6.5085 39.051 0.37595 2.2557 1.4463 4.339 2.1695 6.5085 0.72316 2.8926 1.7478 5.7262 2.1695 8.678 2.644 18.508 6.6427 40.337 17.356 56.407 11.152 16.728 12.239 12.116 28.203 21.695 32.266 19.36 80.506 24.685 117.15 17.356 7.9756-1.5951 16.551-7.1908 23.864-10.847 2.6669-1.3334 6.1971-0.51555 8.678-2.1695 1.3455-0.89697 1.0261-3.1956 2.1695-4.339 2.2868-2.2868 6.3911-2.0521 8.678-4.339 1.9255-1.9255 7.0082-8.3428 8.678-10.847 4.8565-7.2848 13.413-19.336 15.186-28.203 0.42548-2.1274-0.35666-4.3685 0-6.5085 1.2395-7.4372 5.5557-14.073 6.5085-21.695 0.71758-5.7406-0.71758-11.615 0-17.356 4.9565-39.652 2.1695-81.278 2.1695-121.49 0-9.8624-2.2917-49.532 0-56.407 0.21181-0.63543 3.9154-2.5931 2.1695-4.339-2.7406-2.7407-10.625 1.6912-13.017 2.1695-3.5456 0.70912-7.3396-0.87697-10.847 0-20.678 5.1696-45.602 8.678-67.254 8.678-25.586 0 8.4836-0.70158-17.356 2.1695-14.767 1.6408-30.675 0-45.559 0-21.716 0-43.774 1.3823-65.085-2.1695-10.915-1.8192-21.421 0.0547-32.542-2.1695z" fill="#fefefe" stroke="#11d4f4" style="paint-order:markers fill stroke"/>
<path d="m180.21 201.16c-0.47501-19.008-0.49558-38.025-0.54834-57.037 0.59877-17.947 0.65615-36.23 4.5389-53.849 2.0055-8.1245 6.8617-14.403 12.611-20.228 8.6644-7.7511 19.177-11.649 30.351-14.051 12.975-2.4599 22.982-0.51302 35.25 3.5567 1.8824 0.81463 3.7932 1.5666 5.6471 2.4439 1.9214 0.90919 3.8052 1.8977 5.6728 2.9127 1.9534 1.0617 7.9543 3.8127 5.7872 3.3158-2.4306-0.5573-4.4046-4.6693-6.6093-3.5043-2.0202 1.0674 3.7255 2.6515 5.5004 4.0902 1.8135 1.4699 3.5039 3.0855 5.2558 4.6282 9.1672 8.2132 16.654 17.844 22.499 28.63 4.1778 8.2938 6.3107 17.297 8.2165 26.319 1.8381 9.2535 2.0991 18.703 2.3273 28.103 0.24231 11.37 0.20695 22.744 0.0316 34.114-0.2528 3.4345 0.3796 6.9921-0.66771 10.316-0.49365 1.4401-0.73917 2.939-0.98941 4.4345l13.201 6.9986c0.22702-1.4189 0.44481-2.8428 0.92517-4.2046 1.2046-3.5244 0.55783-7.1766 0.62604-10.869-0.13087-11.403-0.12303-22.806-0.1471-34.21-0.15747-9.4631-0.34246-18.979-2.1273-28.306-1.8826-9.1509-4.0031-18.279-8.1164-26.734-5.8128-10.967-13.256-20.789-22.476-29.169-13.37-12.176-29.371-21.175-45.984-28.174-12.451-3.9483-22.702-5.5393-35.745-2.9623-11.375 2.6326-22.038 6.8429-30.932 14.667-5.9599 6.0139-10.969 12.574-12.933 21.006-3.5905 17.882-3.2098 36.363-3.9126 54.507-0.0524 18.826-0.0692 37.657-0.54834 56.479 0 0 13.297 6.7751 13.297 6.7751z" fill="#fefefe" stroke-opacity="0" style="paint-order:markers fill stroke"/>
<circle cx="642.17" cy="262.51" r="1.0922" fill="#fefefe" stroke="#3ab6cb"/>
</svg>
