<?xml version="1.0" encoding="UTF-8"?>
<svg version="1.1" viewBox="0 0 512 512" xmlns="http://www.w3.org/2000/svg">
<circle cx="256" cy="256" r="255.51" fill="#858585" stroke="#000" stroke-width=".98778" style="paint-order:markers fill stroke"/>
<path d="m297.15 138.87c0.82895 34.046 0.87119 68.106 0.98721 102.16 0.12667 44.441-0.0102 88.883-0.308 133.32-0.0939 14.599-0.25758 29.197-0.49865 43.795l12.787 6.5154c-0.23984-14.767-0.40436-29.534-0.49866-44.303-0.29646-44.545-0.43502-89.091-0.30799-133.64 0.11527-33.718 0.15129-67.444 0.98721-101.15l-13.148-6.6994z" opacity="0" style="paint-order:markers fill stroke"/>
<path d="m82.441 251.66c-2.7586-21.15 5.5909-47.394-4.339-67.254-0.73522-1.4704-13.017-16.551-13.017-10.847 0 1.078 3.0964-1.1163 8.678 0 8.0307 1.6061 16.041 3.9006 23.864 6.5085 11.75 3.9165 24.601 5.8124 30.373 17.356 1.7356 3.4712 6.9424 5.2068 8.678 8.678 0.79623 1.5925 3.7863 4.8505 4.339 6.5085 1.426 4.2779 2.0192 10.697 4.339 13.017 1.6165 1.6165 2.1057-2.1695 4.339-2.1695 11.354 0 23.821-2.1608 34.712-4.339 1.5856-0.31712 2.7702-1.7773 4.339-2.1695 4.677-1.1692 10.628 1.5196 15.186 0 8.4839-2.828 16.901-2.1695 26.034-2.1695 3.1419 0 19.031 1.1802 17.356-2.1695-2.3407-4.6815-0.7482-2.9928-2.1695-8.678-1.6693-6.6773-5.4863-12.37-6.5085-19.525-1.5444-10.811-2.9843-21.705-4.339-32.542-0.73966-5.9173-3.5993-11.439-4.339-17.356-0.35879-2.8703 0.40908-5.8144 0-8.678-1.0411-7.2874-5.2972-14.427-6.5085-21.695-0.35667-2.14 0.42547-4.3811 0-6.5085-1.169-5.8447-6.2252-12.45-8.678-17.356-0.47626-0.95252-1.6932-3.3865-2.1695-4.339-0.32341-0.64682 0.72316-2.1695 0-2.1695-2.6074 0 4.0349 3.5144 6.5085 4.339 1.3721 0.45737 2.8927 0 4.339 0 2.1695 0.72316 4.3852 1.3202 6.5085 2.1695 7.2869 2.9148 20.546 11.187 26.034 13.017 4.7943 1.5981 6.069 1.1533 10.847 4.339 4.9841 3.3227-0.93028 1.2392 4.339 6.5085 1.1434 1.1434 3.1956 1.0261 4.339 2.1695 4.3057 4.3057 6.8763 14.121 8.678 19.525 2.4572 7.3718 6.4968 14.061 8.678 21.695 3.3053 11.569 4.5671 23.063 6.5085 34.712 0.75191 4.5115 3.2297 8.5798 4.339 13.017 0.72752 2.9101 5.0164 18.779 6.5085 19.525 3.6656 1.8328 10.794 0 15.186 0 12.549 0 25.039-0.79116 36.881 2.1695 4.4256 1.1064 10.593 0 15.186 0 17.904 0 36.791-1.1301 52.068 6.5085 1.4206 0.71031 8.0669 5.2863 8.678 6.5085 0.32341 0.64682-0.51136 1.6581 0 2.1695 0.51135 0.51136 1.6581-0.51135 2.1695 0 0.51135 0.51136-0.51135 1.6581 0 2.1695 0.51135 0.51136 1.5227-0.3234 2.1695 0 4.5137 2.2569 11.609 10.963 13.017 15.186 0.45737 1.3721-0.45737 2.9669 0 4.339 1.2988 3.8966 3.5593 3.1186 2.1695 8.678-1.2178 4.8711-6.6224 16.709-10.847 19.525-1.3455 0.89697-3.1956 1.0261-4.339 2.1695-2.8926 2.8927 4.6022 2.0818-2.1695 4.339-1.9468 1.3721-4.4503-0.68605-6.5085 0-8.734 2.9113-48.096 7.8323-58.576 4.339-0.97022-0.32341-1.1993-1.8461-2.1695-2.1695-3.8771-1.2924-11.177 0-15.186 0-3.1598 0-14.162-5.3636-17.356-2.1695-1.6241 1.6241-0.46289 31.762-2.1695 36.881-6.7035 20.111-13.567 39.785-26.034 56.407-7.1845 9.5794-17.848 15.679-26.034 23.864-3.5327 3.5327-8.4105 10.714-13.017 13.017-2.2247 1.1124-6.4532 1.0571-8.678 2.1695-0.91474 0.45736-1.1468 2.1695-2.1695 2.1695-0.72316 0 0-1.4463 0-2.1695v-8.678-34.712c0-11.266 2.5518-28.844 0-39.051-1.1165-4.466-3.2225-8.551-4.339-13.017-0.62858-2.5143-1.3098-14.327-2.1695-15.186-0.51135-0.51136-1.8461 0.64682-2.1695 0-1.6398-3.2796 2.2217-17.304-2.1695-21.695-0.41109-0.41109-26.829 2.1695-34.712 2.1695h-52.068c-2.2017 0-12.269-1.4217-13.017-2.1695-0.51136-0.51135 0.51135-1.6581 0-2.1695-0.51136-0.51135-1.8461-0.64682-2.1695 0-0.8678 1.7356 0.86779 4.7729 0 6.5085-0.91474 1.8295-3.2044 2.6371-4.339 4.339-1.9959 2.9939-11.712 16.704-13.017 17.356-0.64681 0.32341-1.6581-0.51135-2.1695 0-0.51135 0.51136 0.51136 1.6581 0 2.1695-0.90911 0.90911-5.1936 1.5121-6.5085 2.1695-2.625 1.3125-15.166 8.1304-17.356 8.678-2.8063 0.70157-5.8717-0.70157-8.678 0-8.0042 2.0011-15.273 2.1695-23.864 2.1695-3.4547 0-19.496 2.1987-21.695 0-3.1152-3.1152 4.0052-2.0026 4.339-2.1695 4.9929-2.4965 10.638-8.2581 13.017-13.017 1.67-3.34 5.3177-7.2752 6.5085-10.847 0.45737-1.3721-0.45737-2.9669 0-4.339 1.6417-4.925 6.3269-10.484 8.678-15.186 0.85662-1.7132-0.60988-4.6788 0-6.5085 3.4834-10.45 2.2466-14.994-2.1695-26.034z" fill="#fff" stroke-opacity="0" style="paint-order:markers fill stroke"/>
</svg>
