<?xml version="1.0" encoding="UTF-8"?>
<svg version="1.1" viewBox="0 0 512 512" xmlns="http://www.w3.org/2000/svg">
<circle cx="256" cy="256" r="255.51" fill="#736eef" stroke="#000" stroke-width=".98778" style="paint-order:markers fill stroke"/>
<path d="m290.66 162.39c0.82924 24.494 0.8715 48.998 0.98755 73.498 0.12672 31.973-0.0102 63.946-0.3081 95.918-0.0939 10.503-0.25767 21.006-0.49882 31.508 0 0 12.792 4.6874 12.792 4.6874-0.23993-10.624-0.40451-21.248-0.49884-31.873-0.29656-32.048-0.43517-64.096-0.30809-96.144 0.11531-24.258 0.15134-48.522 0.98754-72.774 0 0-13.153-4.8198-13.153-4.8198z" opacity="0" stroke-width=".84834" style="paint-order:markers fill stroke"/>
<path d="m167.02 235.73c-30.119 3.8119-75.527-6.7623-104.17 4.6825-27.033 10.801-27.989 23.035-30.383 43.703-0.74678 6.445-5.5895 34.102-2.1702 39.021 1.7564 2.5263 8.241 5.9269 10.851 7.8041 25.492 18.334 58.306 26.888 93.32 21.852 14.693-2.1134 24.529-14.157 32.554-21.852 19.843-19.028 35.651-48.613 19.532-71.798-3.507-5.0444-6.0535-15.608-15.192-15.608" fill="#736eef" stroke-opacity="0" style="paint-order:markers fill stroke"/>
<path d="m100.82 252.86c-4.162 0.11766-8.3517-0.22159-12.473 0.25289-7.681 1.3498-11.389 6.4627-14.855 11.121-6.2884 9.4994-9.8516 19.703-13.076 29.913-2.197 6.8548-3.6264 13.794-4.0221 20.818-0.0038 8.494 2.9811 16.732 6.1032 24.855 2.7674 6.8401 7.8135 11.169 15.613 15.313 14.893 7.4131 27.049 10.519 44.158 12.148 13.724 1.386 27.381 0.69566 40.898-1.262 11.327-1.7459 21.651-5.2911 30.873-10.266 11.042-5.9449 19.11-14.017 26.159-22.423 5.172-6.7788 8.4723-14.415 8.5958-22.204 0.0263-1.6617-0.24979-3.3188-0.3747-4.9782-1.893-11.346-9.3744-21.215-18.183-30.491-10.937-9.985-25.764-17.135-42.268-21.676-10.495-2.3959-21.587-2.5488-32.497-2.7085-9.5522-0.23849-19.052 0.0278-28.512 1.0008-5.9252 0.94456-3.0503 0.38395-8.6321 1.662 0 0 12.121 5.9401 12.121 5.9401 5.4523-1.194 2.6402-0.67259 8.444-1.5427 9.4114-0.87832 18.86-1.0967 28.347-0.88303 10.818 0.17637 21.812 0.39771 32.139 2.9833 1.7387 0.52016 6.4919 2.5568 5.2162 1.5605-1.919-1.4986-4.6847-2.3323-7.2703-3.1647-1.8796-0.6051 3.4764 1.593 5.1301 2.4757 5.4944 2.9327 10.371 6.4228 14.667 10.245 8.852 9.0844 16.435 18.755 18.438 29.954 0.14436 1.614 0.43857 3.2248 0.43311 4.8422-0.0258 7.6331-3.2674 15.122-8.2404 21.794-6.9489 8.3196-14.924 16.26-25.977 22.025-9.147 4.7939-19.307 8.2423-30.442 9.9208-13.442 1.8912-27.012 2.4333-40.622 0.97569-6.0314-0.64533-11.902-1.3557-17.714-2.7291-1.7253-0.40772-6.2987-2.3496-5.1078-1.3635 2.0643 1.7093 5.3878 2.3542 7.924 3.6954 1.2567 0.6646-2.7147-1.1056-4.0721-1.6584-7.8715-3.9325-13.166-7.9563-16.13-14.704-3.2023-7.9985-6.2467-16.111-6.1702-24.509 0.40747-6.9855 1.5207-13.929 3.5958-20.769 3.0975-10.127 6.676-20.23 13.064-29.586 3.3742-4.3597 6.9685-9.2086 14.406-10.136 4.1257-0.25523 8.2764-0.0967 12.414-0.1205l-12.1-6.3226z" fill="#fff" stroke-opacity="0" style="paint-order:markers fill stroke"/>
<path d="m417.18 254.43c-12.941-0.31225-25.608 0.93485-38.14 3.1478-11.837 2.3094-23.337 5.4441-34.125 9.6416-9.1951 5.3356-15.335 12.93-21.124 20.218-2.9456 4.3202-6.6288 8.8045-7.5501 13.674-0.88077 4.6549-0.26067 6.4297 0.29136 11.315 2.5811 14.231 9.3376 27.673 19.166 40.096 1.3795 1.4105 2.6198 2.897 4.1384 4.2315 7.1892 6.3177 21.841 12.376 32.114 14.375 1.9247 0.37461 3.9057 0.57939 5.8585 0.86908 13.191 1.7471 26.105 4e-3 38.707-2.8084 12.78-3.0105 22.234-9.4683 31.09-16.445 7.5191-6.218 11.662-13.678 14.372-21.57 2.2095-6.0416 2.5774-12.125 1.6097-18.298-1.4904-6.6326-3.5486-13.182-6.6758-19.515-2.3514-5.0414-6.6336-9.3479-11.128-13.501-4.9732-4.8317-10.207-9.4652-17.289-12.733-9.2056-4.7002-15.978-6.666-26.017-7.7841 0 0 11.844 6.4004 11.844 6.4004 2.3582 0.28733 3.7079 0.41152 6.0768 0.88401 5.9891 1.1945 7.0566 2.43-5.6271-3.3104 7.3198 2.9766 12.603 7.5368 17.512 12.386 4.4861 4.0497 8.8301 8.2405 11.245 13.173 3.2985 6.255 5.5633 12.718 6.9693 19.339 0.99043 6.0489 0.62472 12.034-1.3279 17.986-2.5727 7.7371-6.6101 15.044-13.906 21.16-8.6994 6.8594-18.071 13.102-30.657 15.987-12.507 2.7151-25.323 4.2553-38.33 2.3438-1.9248-0.32986-3.882-0.57407-5.7746-0.98957-1.7815-0.39113-6.4096-2.459-5.2248-1.4253 1.8272 1.5941 4.711 2.4099 7.3286 3.2609 1.8457 0.60005-3.4209-1.5734-4.985-2.499-4.7206-2.7932-5.1914-3.7404-8.9107-7.3536-10.118-12.211-17.03-25.523-19.486-39.696-0.20919-2.0453-0.60698-4.0851-0.62759-6.1359-0.0656-6.5296 3.5278-12.569 7.6979-18.231 5.6478-7.1451 11.657-14.615 20.959-19.617 10.511-4.2741 21.825-7.3854 33.495-9.6063 12.667-2.1137 25.456-3.22 38.486-2.6707l-12.055-6.299z" fill="#fff" stroke-opacity="0" style="paint-order:markers fill stroke"/>
<path d="m134.81 303.84c1.3462-8.2485 5.3839-16.069 9.7935-23.687 3.9848-6.373 8.0083-12.75 12.298-19.023 6.1489-8.1328 12.632-16.144 19.465-23.989 4.7989-5.5206 10.325-10.677 15.438-16.041 4.977-4.7352 9.5903-9.6422 13.959-14.679 1.9159-1.9355 3.6401-4.002 5.7743-5.8246 0.34289-0.29283 0.6911-0.5936 1.1258-0.81454 0.19224-0.0977 0.89605-0.0265 0.68995-0.10832-4.1814-1.6601-8.5084-3.1232-12.763-4.6848 0.18667 0.10615 0.46033 0.16303 0.56003 0.31843 1.1586 1.8057 0.73292 11.604 0.7596 13.625 0.12459 12.874 0.11271 25.749 0.064 38.624-0.0479 10.912-0.11218 21.824-0.14886 32.736-0.17705 7.3865 0.71297 14.757 1.4027 22.12-0.41308 0.968 1.3762 3.9929-0.25211 4.765-0.30696 0.14555-2.4175 0.3177-2.4804 0.32401-5.6758 0.38642-11.302-0.50324-16.944-0.86399-7.9001-0.18413-15.715-1.015-23.563-1.6283-5.9012-0.49308-11.838-0.56769-17.771-0.60129-5.1612-0.0228-10.322-0.0254-15.484-0.0546-7.8452-3.047 15.946 6.82 10.128 4.187-5.9425 0.36801-10.183-4.8762-15.474-6.4088-1.5361-0.28501-0.7702-0.1427-2.2978-0.42695 0 0 11.887 6.5778 11.887 6.5778 1.4801 0.3263 0.74797 0.14271 2.1962 0.55138 7.9898 2.649-9.0735-9.3221-9.9968-4.8827 0.39755 4.468 9.82 6.2306 15.665 6.7257 5.1056-0.0462 10.212-0.052 15.317-0.013 5.8988 0.0718 11.8 0.20211 17.668 0.67208 7.8457 0.60417 15.67 1.3347 23.557 1.6115 5.7687 0.43972 11.584 1.3219 17.387 0.68342 5.2876-1.0855 4.0753-3.1362 3.6508-6.4745-0.87577-7.3685-1.9247-14.749-1.7432-22.154-0.0344-10.944-0.0935-21.888-0.11565-32.832-0.015-12.839 0.0251-25.679 0.22676-38.518 0.0743-4.9194 0.38106-9.8658-0.14723-14.775-4.6147-1.7143-9.0907-3.6374-13.844-5.1429-0.29246-0.0926-1.4583 0.87474-2.039 1.4222-2.0294 1.9133-3.7544 3.9914-5.6396 5.9754-4.3239 5.0468-9.1017 9.8506-14.052 14.585-5.1055 5.3785-10.32 10.701-15.128 16.222-6.8334 7.8847-13.405 15.896-19.751 23.987-4.3886 6.2695-8.2706 12.728-12.145 19.167-4.4405 7.6818-8.5243 15.52-10.424 23.764l13.19 4.983z" fill="#fff" stroke-opacity="0" style="paint-order:markers fill stroke"/>
<path d="m215.71 310.91c6.7783-6.2247 14.195-12.076 21.59-17.922 9.691-7.273 19.692-14.34 29.189-21.745 5.5805-4.4751 11.097-8.9858 16.461-13.595 7.2282-6.3316 15.781-11.802 24.452-17.085 7.3626-4.4814 14.457-9.1809 21.392-14 5.1172-3.5086 9.8259-7.3054 14.506-11.113 4.6583-3.5126 8.699-7.3984 13.021-11.117 3.179-3.1177 7.9918-5.7938 9.8556-9.5075-0.0259-10.05-15.026-6.2724-21.326-4.9677-1.4333 0.2968-2.8786 0.56297-4.3179 0.84444-1.5647 0.32745-3.1294 0.6549-4.6941 0.98235-10.428 2.5038-21.107 4.2299-31.881 5.7294-11.006 1.5461-22.204 2.0468-33.387 2.3311-10.257 0.19611-20.518 0.1686-30.777 0.13409-5.8686-0.0269-11.737-0.0546-17.606-0.0679-4.4408 0.0165-8.8814-0.01-13.322-0.0203-1.2724-8e-3 -2.5449-6e-3 -3.8173-0.0112l12.137 6.3417c1.258-5e-3 2.516-3e-3 3.774-0.0112 4.4193-0.01 8.8386-0.035 13.258-0.0114 5.8156-7.1e-4 11.631-5e-3 17.447-0.0157 10.231-0.0195 20.463-0.0334 30.69-0.22806 11.225-0.3061 22.453-0.89324 33.492-2.4736 10.835-1.492 21.525-3.3327 32.037-5.7639 4.2103-0.84907 8.4747-1.835 12.761-2.4701 0.95546-0.14157 3.5974 0.21124 2.9006-0.27977-2.6554-1.8711-15.185-7.2146-10.503-5.2139-1.0888 3.3022-6.6875 6.4798-9.3747 9.2089-4.3546 3.6859-8.3107 7.6078-12.962 11.112-4.665 3.7841-9.4263 7.5099-14.462 11.041-6.833 4.829-13.782 9.5758-21.054 14.065-8.7538 5.3274-17.478 10.761-24.805 17.135-5.3969 4.5646-10.907 9.0563-16.32 13.612-9.3262 7.4996-19.297 14.577-29.005 21.819-7.5162 5.8366-14.986 11.707-22.18 17.75l12.828 5.5143z" fill="#fff" stroke-opacity="0" style="paint-order:markers fill stroke"/>
<path d="m351.38 192.84c0.16809 5.3374 0.0497 10.676 0.044 16.014 0.97748 8.3476 2.2999 16.676 3.5186 25.009 1.1477 9.7389 2.6868 19.435 4.7278 29.097 2.3243 10.228 5.9105 20.269 9.7711 30.244 3.6439 9.8546 8.5454 19.432 13.297 29.03 0.38193 0.77462 0.76386 1.5492 1.1458 2.3238l13.372 4.479c-0.4201-0.78679-0.84018-1.5736-1.2603-2.3604-5.0464-9.5717-10.096-19.171-13.725-29.081-3.802-9.9109-7.2414-19.893-9.5849-30.044-2.0839-9.6673-3.8829-19.352-4.9286-29.112-1.179-8.2449-2.2144-16.503-3.169-24.761-6e-3 -5.3274-0.12446-10.656 0.044-15.982 0 0-13.252-4.8561-13.252-4.8561z" fill="#fff" stroke-opacity="0" style="paint-order:markers fill stroke"/>
<path d="m355.99 198.03c-0.14406-4.0045-0.0646-8.0104-0.0284-12.015-0.27738-4.1868 0.82704-8.3052 1.7776-12.414-0.16768-2.4155 2.6994-7.8478 2.0244-10.118-0.16392-0.55141-0.57868-1.0481-0.86803-1.5722-4.7014-4.0647-10.918-7.0637-16.439-10.529-6.4769-3.823-12.46-8.0273-18.534-12.169-3.716-2.8114-8.252-4.915-12.719-7.04l-13.844-3.886c4.516 2.1029 9.2164 4.1013 12.974 6.9096 6.1016 4.1368 12.019 8.4054 18.544 12.208 5.3596 3.4794 11.239 6.5074 16.43 10.115 0.37095 0.36885 0.87143 0.68574 1.1128 1.1066 1.003 1.7483-1.7562 8.024-1.6552 10.02-1.015 4.1355-2.3544 8.2805-2.0729 12.507 0.0359 3.9981 0.11639 7.997-0.0284 11.995l13.326 4.8834z" fill="#fff" stroke-opacity="0" style="paint-order:markers fill stroke"/>
<path d="m180.99 194.13c4.7157 0.77981 9.1297 2.2002 13.684 3.3375 1.5054 0.22577 2.8238 0.47627 4.1597 0.99334 0.35118 0.13592 1.4205 0.52079 1.0754 0.3771-3.8682-1.6105-15.516-6.3886-11.647-4.7786 4.7166 1.9629 9.4607 3.8916 14.191 5.8374-3.8269-1.5611-7.6202-3.1657-11.481-4.6834-2.331-0.91641 2.1239 1.3361 2.8747 1.658 4.5214 1.9387 8.9682 3.9803 13.647 5.7144 0.41868 0.15516 0.93327-0.092 1.3999-0.13799 4.8606-0.76344 9.4658-2.145 14.088-3.4335l-12.28-5.929c-4.4789 1.2584-9.0296 2.7124-13.876 2.9626-5.3658-1.3881-1.2368-0.36938 10.986 4.7678 0.31614 0.13288-0.6615-0.23272-0.95567-0.38953-0.78748-0.41976-1.1108-0.88878-1.9741-1.2688-4.6541-2.049-9.3892-4.0014-14.084-6.0021 3.8111 1.5927 15.297 6.3035 11.433 4.778-7.489-2.9566-11.888-5.7419-19.328-7.0617-4.5561-1.1527-9.0428-2.4405-13.718-3.3369l11.804 6.5952z" fill="#fff" stroke-opacity="0" style="paint-order:markers fill stroke"/>
<path d="m209.66 202.74c6.7022-0.58213 13.39-1.3184 19.977-2.3928 5.9842-1.449 12.107-2.5756 18.003-4.2085 4.1086-1.2294 8.3356-2.3719 12.3-3.8348 3.7653-1.2471 5.7509-3.8839 7.945-6.2668 2.3779-2.1744 4.2267-4.3694 5.0369-7.0797 0.6353-2.9558 0.58576-5.9567 0.62649-8.9391 0.27841-6.439-4.2462-5.1248-14.829-9.2519-3.9756-0.45431-7.9664-0.94986-12.01-1.1891-4.9734-0.25243-9.9603-0.32226-14.944-0.36091-4.473-0.26531-8.8174 0.34627-13.222 0.78192-5.2378 0.58837-10.554 1.1948-15.688 2.1678-5.3786 0.85715-10.658 1.9531-15.928 3.1052-5.08 1.0228-10.086 2.2079-15.289 2.8701-4.022 0.76305-8.0926 1.3661-12.207 1.8015-1.6142 0.0396-2.7301 0.85507-3.3641 1.8605-0.60684 4.8558 9.6967 5.8267 14.864 7.9098-22.936-11.075-7.4623-2.3844-2.4973 0.6149 3.1544 1.8545 6.4711 3.551 9.7168 5.3194 4.9264 2.9573 10.266 4.4091 16.144 7.0558 3.7835 1.7036-7.7312-3.2113-11.629-4.7756-0.64703-0.25967 1.2029 0.62289 1.7884 0.94949 4.111 2.6721 19.313 8.3733 13.331 3.2466-3.6049-3.8434-6.2421-8.102-8.7302-12.363-0.37048-0.0131-1.6158-3.9514-1.8157-3.5116-0.16451 0.3618 0.11301 1.2413-0.38286 1.1082-3.8142-1.0234-7.1968-2.7383-10.795-4.1075 5.7516 4.084 11.689 8.0266 17.293 12.218 4.4586 3.463 5.2634 4.4803 15.267 4.8813 1.2244 0.049-1.1386-1.5624-1.6907-2.35-0.66666-0.95089-1.3102-1.9101-1.9654-2.8651-2.262-3.5713-4.4507-7.1769-6.406-10.842-1.0943 4.2705 0.4078 0.46807-11.487-3.1987-1.1746-0.36208 1.9507 1.1881 2.9022 1.8016 1.2205 0.78701 2.4176 1.5927 3.613 2.3994 3.1034 2.0944 5.0405 3.4629 8.097 5.5945 3.2082 2.2487 6.3892 4.5173 9.5544 6.7972 0.42125 0.30344 2.2962 1.7726 3.1574 2.0812 4.5904 1.645 9.2749 3.1504 13.912 4.7256 1.512-3.0084-0.34295-6.3226-1.2347-9.332-0.62043-2.0072-1.0543-4.0334-1.2333-6.0846-0.35768-0.20539 0.30155-4.5373-0.1484-2.3899-17.179-7.6464-14.225-7.3967-10.956-3.2502 1.4283 1.8118 2.8374 3.6082 4.3727 5.3758 1.4545 0.64113 4.0338 6.0906 5.2648 6.5481 4.5138 1.6775 9.185 3.1264 13.777 4.6895 1.2694-3.8654 0.7187-8.0137 0.69039-11.977 0.20936-0.0905-0.47435-4.5358 0.4575-4.5058 0.47333 0.0152 0.61747 0.51721 0.94068 0.76637-20.735-9.187-11.498-4.8159-7.3214-2.0831 2.0526 1.3431 4.0149 2.7446 6.0977 4.0639 4.2639 2.3521 15.912 10.221 17.833 5.3421 0.32257-0.81922 0.18431-2.6647 0.16548-3.4496-0.45538-2.4046-0.17302-1.2196-0.84127-3.5558 0 0-13.384-4.6482-13.384-4.6482 0.7122 2.2433 0.38776 1.1193 0.97408 3.372 0.12933 4.1382 0.0313-0.26811 8e-3 2.9964-4.8e-4 0.0669 0.12923 0.20051 0.0362 0.19913-0.27637-5e-3 -1.0124-0.31329-0.77606-0.21019 3.7861 1.6518 7.5804 3.2957 11.437 4.861 0.60877 0.24711-1.1211-0.60084-1.6816-0.90125-8.1274-4.7441-13.39-10.134-24.371-12.643-4.045-3.9e-4 -2.6807 3.6369-2.7448 5.5783 0.0481 3.6917 0.19432 7.4011-0.30397 11.08 4.2633 1.7719 8.5266 3.5438 12.79 5.3156-0.21452-0.17369-0.46342-0.32825-0.64359-0.52108-1.7974-1.9238-3.0247-4.1263-4.87-6.0322-7.7861-8.7124-1.7201-5.9627-18.919-13.012-2.0002 1.0552-1.2571 2.498-1.2649 4.1455 0.10065 2.1208 0.5151 4.21 1.222 6.2731 0.77767 2.6517 1.846 5.2903 2.1042 7.9951 4.1836 1.7176 8.3892 3.4079 12.551 5.1528 0.47947 0.20102-1.0594-0.27694-1.5001-0.51951-4.313-2.3736-7.4686-5.8356-11.727-8.2607-9.8201-6.8746-15.426-11.582-28.749-16.055-0.57535-0.19319-0.96182 0.59637-1.4427 0.89456 1.7873 3.7852 4.8049 7.3062 6.7085 11.068 0.62819 0.94981 1.257 1.8994 1.8845 2.8494 0.51623 0.78144 0.55748 1.8528 1.5469 2.3449 24.199 12.035 16.709 7.2618 11.986 3.5914-5.6432-4.1705-11.615-8.0873-17.257-12.258-5.0025-2.2996-17.221-9.7112-16.071-5.5221 0.33121 1.2071 1.6977 2.2778 1.8726 3.5227 2.5685 4.2776 5.243 8.5237 8.445 12.58 3.2125 3.1556 20.903 9.0024 14.352 5.0199-4.8717-2.9758-8.9989-4.094-15.747-6.9597-3.8449-1.6329 7.6802 3.2777 11.549 4.8817 0.78637 0.32608-3.1326-1.4328-2.1052-1.2423-3.4594-1.56-6.5382-3.5816-9.8802-5.2746-7.5863-4.3114-13.01-8.9182-22.963-11.37-6.7316-2.5273 16.351 7.7006 10.011 4.1486 0.43632-0.74985 1.347-0.88146 2.4371-0.95874 4.0828-0.52376 8.1189-1.1944 12.16-1.8614 5.1897-0.76798 10.216-1.9731 15.315-2.996 5.2589-1.1566 10.57-2.1463 15.926-3.039 5.1342-0.86628 10.345-1.593 15.573-2.0842 4.3771-0.42529 8.7255-0.83638 13.157-0.62393 4.9417 0.0324 9.8883 0.0885 14.814 0.40388 4.0412 0.31081 8.0325 0.79651 12.006 1.4082-4.007-1.6888-8.0713-3.3093-12.021-5.0665-0.37565-0.16711 0.95475 0.12264 1.2159 0.37884 0.74526 0.73105 0.28494 1.6544 0.42687 2.4941 0.0202 2.9166 0.0396 5.8488-0.49715 8.7453-0.70062 2.584-2.4912 4.6647-4.7294 6.7384-2.0535 2.2682-3.9728 4.6379-7.5705 5.7657-3.9705 1.3654-7.9984 2.6721-12.111 3.7976-5.8561 1.5605-11.877 2.7666-17.835 4.1034-6.6252 1.0072-13.309 1.8045-20.053 2.258l12.199 6.1861z" fill="#fff" stroke-opacity="0" style="paint-order:markers fill stroke"/>
</svg>
