<?xml version="1.0" encoding="UTF-8" standalone="no"?>
<!-- Created with Inkscape (http://www.inkscape.org/) -->

<svg
   width="512"
   height="512"
   viewBox="0 0 512 512"
   version="1.1"
   id="svg5"
   inkscape:version="1.2.1 (9c6d41e, 2022-07-14)"
   sodipodi:docname="drawing.svg"
   xmlns:inkscape="http://www.inkscape.org/namespaces/inkscape"
   xmlns:sodipodi="http://sodipodi.sourceforge.net/DTD/sodipodi-0.dtd"
   xmlns="http://www.w3.org/2000/svg"
   xmlns:svg="http://www.w3.org/2000/svg">
  <sodipodi:namedview
     id="namedview7"
     pagecolor="#ffffff"
     bordercolor="#000000"
     borderopacity="0.25"
     inkscape:showpageshadow="2"
     inkscape:pageopacity="0.0"
     inkscape:pagecheckerboard="0"
     inkscape:deskcolor="#d1d1d1"
     inkscape:document-units="px"
     showgrid="false"
     inkscape:zoom="0.4609375"
     inkscape:cx="-261.42373"
     inkscape:cy="282.0339"
     inkscape:window-width="1440"
     inkscape:window-height="762"
     inkscape:window-x="0"
     inkscape:window-y="25"
     inkscape:window-maximized="1"
     inkscape:current-layer="layer1" />
  <defs
     id="defs2">
    <inkscape:path-effect
       effect="bspline"
       id="path-effect1965"
       is_visible="true"
       lpeversion="1"
       weight="33.333333"
       steps="2"
       helper_size="0"
       apply_no_weight="true"
       apply_with_weight="true"
       only_selected="false" />
    <inkscape:path-effect
       effect="fillet_chamfer"
       id="path-effect221"
       is_visible="true"
       lpeversion="1"
       nodesatellites_param="F,0,0,1,0,84,0,1 @ F,0,0,1,0,84,0,1 @ F,0,0,1,0,84,0,1 @ F,0,0,1,0,84,0,1"
       unit="px"
       method="auto"
       mode="F"
       radius="84"
       chamfer_steps="1"
       flexible="false"
       use_knot_distance="true"
       apply_no_radius="true"
       apply_with_radius="true"
       only_selected="false"
       hide_knots="false" />
  </defs>
  <g
     inkscape:label="Layer 1"
     inkscape:groupmode="layer"
     id="layer1">
    <rect
       style="fill:#ca82f8;fill-opacity:1"
       id="rect111"
       width="512"
       height="512"
       x="0"
       y="0"
       inkscape:path-effect="#path-effect221"
       d="m 84,0 h 344 a 84,84 45 0 1 84,84 v 344 a 84,84 135 0 1 -84,84 H 84 A 84,84 45 0 1 0,428 V 84 A 84,84 135 0 1 84,0 Z" />
    <path
       style="fill:#a1d9ff;fill-opacity:1;stroke-width:1.03628"
       d="m 75.932203,167.37142 c -0.723171,107.171 -1.446335,214.34095 58.216397,268.70201 59.66272,54.36105 179.70552,55.91421 239.72762,4.65851 60.02209,-51.2557 60.02209,-155.31719 60.38362,-210.45547 0.36154,-55.13829 1.08469,-61.3509 1.80796,-67.5646"
       id="path1963"
       inkscape:path-effect="#path-effect1965"
       inkscape:original-d="m 75.932203,167.37142 c -0.722163,107.17101 -1.445327,214.34096 -2.169491,321.50983 120.048598,1.5543 240.091398,3.10746 360.135598,4.65956 0.001,-104.06457 0.001,-208.12606 0,-312.1907 0.72417,-6.2118 1.44732,-12.42441 2.16949,-18.63824" />
    <path
       style="fill:#000000;fill-opacity:1;stroke:none;stroke-opacity:1;paint-order:markers fill stroke"
       id="path3397"
       d="m 153.18805,193.02322 c -4.22837,0.30773 -8.76792,0.56372 -12.78153,2.03971 -2.52656,0.85248 -4.47612,2.55238 -5.55214,4.96689 -2.63138,7.31088 5.05998,6.61795 13.36982,11.58084 5.67976,0.84626 11.45829,0.85807 17.19085,0.96774 5.66555,0.0546 11.33144,0.0716 16.99722,0.0818 2.46665,0.15804 4.88264,0.16044 6.15145,-2.22927 0.82987,-2.13956 0.404,-4.07747 -0.93746,-5.87428 -5.88737,-6.00425 -13.70334,-10.10318 -21.98129,-11.15994 -3.85765,-0.5482 -7.56685,-0.42264 -11.36305,0.3379 -2.73335,0.44905 -5.20671,1.04266 -7.48529,2.64603 -1.0105,1.20659 -1.53751,2.60025 -1.6534,4.14566 5.47804,5.00638 12.14395,8.80181 19.47925,9.73798 2.9804,0.12563 6.03571,0.59282 8.95871,-0.1133 1.56915,-0.40133 3.11579,-0.88215 4.65229,-1.39255 0,0 -12.43342,-8.43307 -12.43342,-8.43307 v 0 c -1.46718,0.49614 -2.94729,0.96491 -4.47303,1.2489 -2.88077,0.30849 -5.80954,0.033 -8.68047,-0.28414 -1.02113,-0.17424 -1.70382,-0.25531 -2.70046,-0.57209 -0.38483,-0.12232 -1.47146,-0.65633 -1.12545,-0.44817 23.84803,14.3469 14.64526,7.58688 10.19343,6.16936 -1.21368,0.76819 0.0517,-1.55785 0.44195,-1.96774 2.11869,-1.37763 4.60629,-1.67268 7.03839,-2.19918 3.6858,-0.61705 7.36988,-0.47986 11.06766,0.0638 1.50605,0.27238 2.27198,0.35372 3.71736,0.83514 0.5508,0.18346 2.10962,0.95472 1.61647,0.64838 -20.58197,-12.78479 -12.99917,-8.20089 -9.09185,-5.07568 1.38437,1.26708 2.27895,2.26891 1.68801,4.2385 -0.68604,1.6107 -3.89432,0.69778 -5.11695,0.93538 -5.62724,0.0295 -11.25508,0.0652 -16.88189,-0.0375 -5.66287,-0.11801 -11.54491,0.0426 -17.01596,-1.56405 19.85781,12.49347 9.81776,10.69614 11.4776,5.0633 0.82923,-2.10009 2.69745,-3.2663 4.80735,-3.9316 4.03316,-1.18128 8.35007,-1.6363 12.53939,-1.62366 0,0 -12.11356,-8.80102 -12.11356,-8.80102 z" />
    <path
       style="fill:#000000;fill-opacity:1;stroke:none;stroke-opacity:1;paint-order:markers fill stroke"
       id="path3405"
       d="m 341.68602,186.52326 c -6.80229,0.0353 -13.57902,1.50715 -20.1037,3.35443 -3.33695,0.8619 -6.45523,2.03629 -8.73463,4.69911 -3.30486,7.17327 5.12871,6.9976 12.74827,11.44224 3.33998,1.54437 7.11422,1.68414 10.72627,1.96373 4.90205,0.32241 9.81633,0.31698 14.72635,0.32581 4.53808,-0.005 9.07612,0.0118 13.61419,0.01 3.06218,-0.3688 5.74305,-1.49696 8.35235,-3.0707 1.33057,-1.24625 2.15517,-2.70357 2.45256,-4.48397 0.96397,-7.58705 -7.3227,-7.6264 -14.38421,-11.59755 -3.40368,-0.48576 -6.84737,-0.45273 -10.27665,-0.49049 -2.84206,-0.006 -5.68422,-0.0199 -8.52628,-0.009 -1.66819,0.0271 -3.24872,1.10038 -4.7356,1.85927 -0.69405,0.53181 -1.08689,0.33076 -1.88408,0.33203 -0.93032,0.0534 -1.39831,1.5828 -1.63554,2.39512 -0.19262,1.2556 -0.18915,2.53769 -0.01,3.79198 2.67288,5.64241 9.92846,9.08918 16.11866,9.14741 1.45767,0.0461 2.91665,0.0234 4.37473,0.005 0.97278,-0.005 0.50319,-0.004 1.40876,-0.005 0,0 -12.17802,-8.83542 -12.17802,-8.83542 v 0 c -0.89467,0.0104 -0.42943,0.006 -1.39575,0.0126 -1.42672,-0.002 -2.85912,0.0302 -4.27833,-0.14469 -0.82849,-0.18069 -2.40736,-0.97019 -1.78319,-0.59534 21.45467,12.88471 15.42698,9.73111 11.41116,6.68315 -0.80332,-0.63021 -0.26834,-1.94542 -0.38996,-2.89548 0.13038,-0.76803 0.0874,-0.87768 0.60565,-0.77488 0.8317,-0.0976 1.51163,-0.41949 2.21963,-0.85608 1.36095,-0.7038 2.70132,-1.46842 4.28911,-1.30888 2.81305,-0.0127 5.62614,-0.0601 8.43928,-0.0251 3.3475,0.0414 6.80463,-0.0309 10.03167,0.96625 -3.96195,-2.3478 -7.97113,-4.61767 -11.88586,-7.04341 -0.22148,-0.13724 0.52631,0.0523 0.76648,0.15335 0.80767,0.33978 0.3073,1.56226 0.38222,2.23072 -0.11814,1.35729 -0.61177,2.46958 -1.72343,3.33977 -2.41303,1.42176 -5.00332,2.3076 -7.82528,2.46006 -4.51547,0.011 -9.03087,0.0496 -13.5464,0.03 -4.89209,-0.0268 -9.79077,-0.0543 -14.67058,-0.43967 -3.64389,-0.35943 -7.28808,-0.79253 -10.62333,-2.41698 4.06801,2.45557 8.203,4.80345 12.20403,7.36672 0.14354,0.092 -0.34244,0.21593 -0.49299,0.13598 -0.28585,-0.1518 0.19142,-1.68647 0.25925,-1.90467 2.03496,-2.41292 5.10029,-3.22326 8.02052,-4.101 6.51986,-1.74926 13.23148,-3.24728 20.02237,-2.92256 0,0 -12.09013,-8.78399 -12.09013,-8.78399 z" />
    <path
       style="fill:#000000;fill-opacity:1;stroke:none;stroke-opacity:1;paint-order:markers fill stroke"
       id="path3413"
       d="m 167.21298,199.52503 c -0.12473,-6.19846 -0.11165,-12.39931 -0.10496,-18.59884 0.15547,-5.79129 -0.24176,-11.6053 0.26048,-17.38039 0.58599,-6.34944 1.83826,-12.55894 3.50955,-18.70213 1.5031,-5.00568 3.64843,-9.7255 6.16919,-14.28376 1.9792,-3.79977 4.49342,-7.18956 7.10103,-10.56942 3.24475,-4.07902 6.89032,-7.81421 10.49471,-11.57135 4.00257,-4.10649 8.55563,-7.53224 13.01307,-11.098 3.33148,-2.893154 6.81242,-5.668542 10.68733,-7.796652 3.96892,-2.521182 8.51572,-3.778037 12.95234,-5.196401 4.29503,-1.319934 8.77822,-1.620095 13.23833,-1.799458 5.29435,-0.134796 10.59122,-0.10215 15.88681,-0.105815 6.09933,-0.12272 12.1382,-0.0616 18.18994,0.707715 5.95784,0.615675 11.85002,2.119735 17.3915,4.381793 21.1195,12.212341 -39.10363,-23.389507 8.98872,4.945005 3.57059,2.103681 -7.16112,-4.17792 -10.82314,-6.118077 -0.65904,-0.349163 1.19696,0.890102 1.79544,1.335154 3.91778,2.692416 7.4866,5.765044 10.8873,9.072309 3.39996,2.918351 6.03337,6.540247 8.66189,10.132287 2.15923,3.4962 3.96233,7.20625 5.59974,10.9715 1.94876,3.51122 3.04418,7.35702 4.28,11.15098 1.09924,4.12269 1.86658,8.31724 2.8699,12.46791 0.92709,3.58364 1.17431,7.27747 1.30176,10.96114 0.0851,3.16438 0.0849,6.3309 0.0613,9.49617 0.37996,2.97176 1.26701,5.83504 1.71036,8.79991 0.0192,2.70352 0.95673,5.18422 1.67339,7.74506 0.61387,2.45528 0.64626,4.96793 1.41762,7.38298 0.70455,1.88512 1.23236,3.82712 1.49362,5.82259 0.13735,1.17408 0.17103,2.35458 0.16307,3.53543 -0.002,0.11098 -0.004,0.22196 -0.005,0.33294 0,0 13.43264,6.85369 13.43264,6.85369 v 0 c -5.1e-4,-0.11549 -0.001,-0.23097 -0.002,-0.34646 -0.009,-1.23845 0.0161,-2.48006 -0.12666,-3.71249 -0.21672,-2.08788 -0.6116,-4.16388 -1.39731,-6.12109 -0.84222,-2.39206 -1.07222,-4.77308 -1.48125,-7.28367 -0.57224,-2.56801 -1.8159,-4.92011 -1.7407,-7.61064 -0.41524,-2.91446 -1.04184,-5.7621 -1.81156,-8.6043 -0.009,-3.18854 0.0188,-6.37763 -0.0678,-9.56549 -0.14948,-3.76951 -0.27102,-7.56723 -1.18569,-11.24773 -1.06865,-4.17269 -1.89473,-8.36856 -2.84381,-12.56399 -1.20388,-3.82828 -2.19669,-7.76781 -4.2022,-11.27698 -1.65377,-3.83747 -3.46881,-7.59499 -5.47956,-11.25812 -2.54603,-3.69821 -5.23821,-7.3868 -8.5836,-10.40842 -3.46234,-3.243881 -6.75767,-6.666055 -10.82301,-9.202691 -6.31569,-5.206188 0.45197,0.220159 -16.33259,-10.053988 -3.46888,-2.123369 14.09291,8.126855 10.54454,6.139166 -6.52722,-3.656348 -12.79345,-7.826672 -19.62951,-10.904305 -5.68874,-2.023193 -11.558,-3.543714 -17.5899,-4.07594 -6.08795,-0.680537 -12.18047,-0.612014 -18.30133,-0.57419 -5.32423,-0.01913 -10.65056,-0.05429 -15.97263,0.127982 -4.55874,0.2232 -9.11935,0.675765 -13.47898,2.119449 -4.50817,1.486743 -9.08577,2.852946 -13.11866,5.443137 -3.88926,2.256184 -7.42734,5.04685 -10.8113,8.001887 -4.49003,3.604549 -8.96005,7.199463 -13.01905,11.305953 -3.71779,3.73829 -7.38664,7.53765 -10.69259,11.65154 -2.66267,3.43393 -5.18402,6.92005 -7.21715,10.77356 -2.53514,4.68647 -4.7013,9.52923 -6.24015,14.64687 -1.65902,6.2153 -3.02262,12.48604 -3.67134,18.89817 -0.59853,5.82256 -0.14715,11.6934 -0.25853,17.53894 0.007,6.16387 0.0206,12.32911 -0.10496,18.49188 0,0 13.34121,6.79769 13.34121,6.79769 z" />
  </g>
</svg>
