<?xml version="1.0" encoding="UTF-8"?>
<svg version="1.1" viewBox="0 0 1499.9 300.03" xmlns="http://www.w3.org/2000/svg">
<g>
<g transform="matrix(.68213 0 0 .65695 12.317 -29.839)" fill="none" stroke="#000" stroke-width="46.121">
<path d="m415 209.5a205 270.12 0 0 1-102.5 233.93 205 270.12 0 0 1-205-1e-5 205 270.12 0 0 1-102.5-233.93z"/>
<path transform="scale(1,-1)" d="m169.89-209.7a43.167 141.22 0 0 1-21.584 122.3 43.167 141.22 0 0 1-43.167-4e-6 43.167 141.22 0 0 1-21.584-122.3z"/>
<path transform="scale(1,-1)" d="m327.39-210.15a43.167 141.22 0 0 1-21.584 122.3 43.167 141.22 0 0 1-43.167-3e-6 43.167 141.22 0 0 1-21.584-122.3z"/>
</g>
<text transform="matrix(3.4678 0 0 3.8008 -1253.8 -150.33)" fill="#000000" font-family="'Helvetica Neue'" font-size="96px" font-weight="bold" letter-spacing="1.9966px" stroke="#000000" stroke-width="1.7114" word-spacing="0px" style="line-height:0;shape-inside:url(#rect1);white-space:pre" xml:space="preserve"><tspan x="459.74609" y="113.15044">PURSE</tspan></text>
</g>
</svg>
