<?xml version="1.0" encoding="UTF-8"?>
<svg version="1.1" viewBox="0 0 512 512" xmlns="http://www.w3.org/2000/svg">
<rect width="512" height="512" fill="#7e22ce"/>
<text transform="matrix(1.3945 0 0 1.3945 25.401 -18.6)" fill="#ffffff" font-family="'Helvetica Neue'" font-size="96px" font-weight="bold" letter-spacing="-8.6054px" stroke-width="30" word-spacing="0px" style="line-height:0;shape-inside:url(#rect2);white-space:pre" xml:space="preserve"><tspan x="19.980469" y="346.69732">PURSE</tspan></text>
<path d="m376.72 183.34a115.93 140.77 0 0 1-57.967 121.91 115.93 140.77 0 0 1-115.93-1e-5 115.93 140.77 0 0 1-57.967-121.91z" fill="none" stroke="#fff" stroke-width="24.132"/>
<path transform="scale(1,-1)" d="m235.94-173.71a22.775 83.912 0 0 1-11.387 72.67 22.775 83.912 0 0 1-22.775 0 22.775 83.912 0 0 1-11.387-72.67" fill="none" stroke="#fff" stroke-width="19.594"/>
<path transform="scale(1,-1)" d="m331.19-173.71a22.775 83.912 0 0 1-11.387 72.67 22.775 83.912 0 0 1-22.775 0 22.775 83.912 0 0 1-11.387-72.67" fill="none" stroke="#fff" stroke-width="19.594"/>
</svg>
