<?xml version="1.0" encoding="UTF-8"?>
<svg version="1.1" viewBox="0 0 512 154" xmlns="http://www.w3.org/2000/svg">
<text transform="matrix(1.221 0 0 1.221 132.29 -275.4)" fill="#ffffff" font-family="'Helvetica Neue'" font-size="96px" font-weight="bold" letter-spacing="-8.6054px" stroke-width="30" word-spacing="0px" style="line-height:0;shape-inside:url(#rect2);white-space:pre" xml:space="preserve"><tspan x="19.980469" y="346.69732">PURSE</tspan></text>
<path d="m146.89 62.007a69.809 84.832 0 0 1-34.905 73.467 69.809 84.832 0 0 1-69.809 0 69.809 84.832 0 0 1-34.905-73.467z" fill="none" stroke="#fff" stroke-width="14.537"/>
<path transform="scale(1,-1)" d="m61.776-54.742a13.755 48.929 0 0 1-6.8773 42.374 13.755 48.929 0 0 1-13.755-1e-6 13.755 48.929 0 0 1-6.8773-42.374" fill="none" stroke="#fff" stroke-width="11.627"/>
<path transform="scale(1,-1)" d="m119.89-54.742a13.755 48.929 0 0 1-6.8773 42.374 13.755 48.929 0 0 1-13.755-1e-6 13.755 48.929 0 0 1-6.8773-42.374" fill="none" stroke="#fff" stroke-width="11.627"/>
</svg>
